<?xml version="1.0" standalone="no"?>
<!DOCTYPE svg PUBLIC "-//W3C//DTD SVG 20010904//EN"
 "http://www.w3.org/TR/2001/REC-SVG-20010904/DTD/svg10.dtd">
<svg version="1.0" xmlns="http://www.w3.org/2000/svg"
 width="599.000000pt" height="417.000000pt" viewBox="0 0 599.000000 417.000000"
 preserveAspectRatio="xMidYMid meet">

<g transform="translate(0.000000,417.000000) scale(0.100000,-0.100000)"
fill="#000000" stroke="none">
<path d="M1860 3500 c-26 -48 35 -590 70 -624 8 -8 15 -6 26 8 17 24 17 44 3
156 -6 47 -14 170 -18 273 -5 149 -10 190 -21 197 -24 16 -49 11 -60 -10z"/>
<path d="M1423 3475 c-16 -43 243 -521 329 -607 19 -19 20 -19 33 -1 8 10 15
21 15 25 0 18 -50 118 -82 163 -20 28 -46 75 -59 105 -13 30 -46 91 -74 135
-28 44 -64 103 -80 130 -15 28 -33 53 -39 57 -18 12 -36 9 -43 -7z"/>
<path d="M2268 3273 c-25 -38 -69 -113 -98 -168 -29 -55 -58 -107 -66 -115
-37 -42 -60 -160 -32 -160 7 0 -4 -11 -24 -25 -74 -50 -121 -141 -138 -267
-20 -144 -16 -139 -58 -75 -58 87 -186 198 -269 232 -51 22 -86 19 -117 -10
-15 -14 -31 -25 -35 -25 -5 0 -15 -7 -22 -17 -11 -12 -11 -17 -2 -20 9 -3 11
-21 7 -61 -13 -125 49 -279 187 -467 87 -118 258 -298 351 -371 40 -31 58 -52
60 -71 2 -20 11 -30 31 -37 43 -15 59 2 90 95 29 90 101 285 122 334 47 106
119 359 136 473 23 164 -15 282 -104 320 -34 14 -136 16 -171 2 -23 -8 -21 -3
19 46 25 30 54 71 65 92 11 20 26 46 33 57 87 140 112 188 121 236 16 91 -26
92 -86 2z m10 -570 c28 -74 29 -73 -31 -73 -59 0 -56 -4 -43 62 5 24 19 33 52
37 6 0 16 -11 22 -26z m-253 -168 c-4 -25 -9 -44 -12 -41 -2 2 -1 25 2 51 4
25 9 44 12 41 2 -2 1 -25 -2 -51z m187 -65 c-25 -55 -47 -98 -49 -96 -5 5 17
177 23 188 3 4 20 8 39 8 l33 0 -46 -100z m-647 -62 c48 -80 167 -261 175
-268 4 -3 39 -48 78 -100 40 -52 86 -113 104 -135 38 -47 14 -30 -52 36 -164
165 -304 368 -338 492 -6 20 -9 37 -8 37 2 0 20 -28 41 -62z m171 -61 c22 -41
1 -25 -26 20 -15 26 -17 33 -5 23 9 -7 23 -27 31 -43z m297 -537 c3 -11 4 -20
3 -20 -2 0 -11 9 -21 20 -15 17 -16 20 -3 20 9 0 18 -9 21 -20z"/>
<path d="M1380 2995 c-16 -43 -7 -55 125 -171 74 -64 165 -126 203 -138 34
-11 28 18 -10 51 -18 16 -90 85 -160 156 -71 70 -133 127 -138 127 -6 0 -15
-11 -20 -25z"/>
<path d="M942 1263 c-7 -3 -21 -22 -32 -44 -34 -65 -22 -109 28 -109 26 0 25
-10 -10 -90 -23 -51 -118 -200 -148 -232 -11 -12 -21 -27 -22 -32 -1 -6 -5 52
-8 129 -4 114 -8 140 -20 140 -8 0 -18 -13 -23 -30 -23 -78 -71 -135 -115
-135 -28 0 -52 40 -52 85 0 61 20 105 63 138 42 32 109 37 138 11 20 -18 39
-11 39 15 0 50 -133 62 -199 18 -46 -31 -91 -116 -91 -173 0 -115 86 -169 174
-109 l36 24 0 -95 c0 -90 -2 -97 -29 -132 -93 -117 -151 -270 -158 -414 -5
-88 -3 -100 17 -127 19 -27 27 -31 69 -31 37 0 52 5 68 22 59 66 73 134 80
380 l6 196 73 98 c40 54 83 118 96 142 13 24 32 60 43 80 10 20 24 55 30 77
10 38 12 40 50 40 l40 0 -4 -102 c-3 -83 0 -106 14 -131 22 -36 64 -62 100
-62 39 0 118 46 139 81 21 35 32 37 40 5 3 -13 22 -38 41 -55 31 -27 43 -31
92 -31 62 0 109 23 140 68 14 22 26 27 58 28 23 0 56 8 74 17 19 9 35 17 36
17 2 0 5 -14 9 -31 3 -18 22 -47 42 -65 32 -31 41 -34 93 -34 49 0 65 5 100
30 23 17 44 37 48 45 3 9 19 15 42 15 38 0 114 30 125 49 13 21 25 11 37 -31
11 -44 68 -108 95 -108 23 0 80 60 108 114 14 27 26 53 26 57 0 4 5 20 10 35
l11 27 38 -41 c41 -44 73 -57 121 -50 27 4 29 2 36 -36 8 -52 51 -96 94 -96
37 0 85 23 99 47 5 10 12 15 16 11 11 -10 -6 -138 -20 -151 -42 -43 -119 -193
-150 -292 -42 -138 -30 -236 32 -264 68 -31 124 12 161 124 8 25 15 116 19
240 l6 200 84 90 c46 50 89 100 96 111 7 12 20 36 30 54 10 17 16 38 13 46 -9
24 -33 15 -49 -18 -20 -42 -111 -155 -150 -188 l-30 -24 7 54 c3 30 9 99 13
153 6 95 5 97 -15 97 -14 0 -22 -6 -22 -17 0 -29 -37 -136 -59 -174 -43 -74
-113 -76 -127 -4 -9 49 2 124 27 180 13 29 17 51 12 56 -19 19 -42 -4 -63 -62
-36 -95 -82 -116 -139 -65 -24 22 -71 114 -71 140 0 10 -9 16 -25 16 -24 0
-25 -3 -25 -59 0 -79 -33 -174 -83 -235 -31 -38 -48 -31 -78 31 -20 40 -24 64
-24 142 0 63 -4 96 -12 98 -17 6 -43 -50 -43 -94 -1 -61 -55 -113 -119 -113
l-31 0 0 68 c0 93 -24 132 -79 132 -49 0 -71 -26 -71 -86 0 -30 8 -52 30 -82
17 -23 34 -42 39 -42 23 0 19 -34 -8 -61 -24 -23 -38 -29 -74 -29 -39 0 -49 5
-77 37 -29 32 -32 41 -28 84 5 50 33 95 71 113 32 17 35 46 4 46 -27 0 -85
-50 -105 -90 -31 -60 -73 -90 -126 -90 -22 0 -24 5 -28 75 -6 89 -30 125 -82
125 -43 0 -56 -11 -63 -53 -10 -61 4 -104 48 -146 l40 -38 -31 -32 c-26 -25
-40 -31 -75 -31 -63 0 -96 31 -102 96 -6 65 8 98 56 131 47 33 52 53 13 53
-36 0 -76 -39 -125 -121 -21 -35 -43 -71 -50 -79 -27 -34 -85 -70 -114 -70
-60 0 -82 59 -64 168 16 101 -3 132 -85 132 -29 0 -32 3 -38 39 -3 22 -13 47
-22 55 -16 17 -21 18 -42 9z m18 -62 c0 -5 3 -16 6 -25 4 -12 0 -16 -15 -16
-22 0 -25 8 -15 34 7 17 24 22 24 7z m659 -109 c5 -10 13 -42 17 -72 6 -43 4
-52 -7 -48 -36 12 -75 109 -52 131 12 13 32 7 42 -11z m455 -4 c18 -25 22
-118 6 -118 -12 0 -48 56 -56 87 -13 51 22 72 50 31z m870 -766 c-9 -34 -25
-73 -36 -87 -40 -51 -98 -18 -98 55 0 51 33 158 76 247 70 147 69 147 72 -12
2 -107 -1 -155 -14 -203z m-2260 -77 c-27 -116 -61 -152 -111 -119 -19 12 -23
23 -23 67 0 101 71 308 130 381 14 16 15 5 18 -120 2 -104 -1 -157 -14 -209z"/>
</g>
</svg>
